# xmcd
#
# Track frame offsets: 
#        150
#        15338
#        34748
#        58795
#        77789
#        95913
#        112895
#        132260
#        150108
#        167690
#        203400
#
# Disc length: 4440 seconds
#
# Revision: 2
# Processed by: cddbd v1.5.2PL0 Copyright (c) Steve Scherf et al.
# Submitted via: ExactAudioCopy v0.90b4
#
DISCID=7b11560b
DTITLE=Deportees - All Prayed Up
DYEAR=2004
DGENRE=Rock
TTITLE0=Not Tonight
TTITLE1=Arrest Me ´Til It Hurts
TTITLE2=It Don't Seem Right
TTITLE3=Baby Don't Count Me Out
TTITLE4=Don't Cross My Landscape
TTITLE5=Cry Cry Cry
TTITLE6=Nothing Wants You Back
TTITLE7=Won't You Tell Him
TTITLE8=Champagne Eyes
TTITLE9=Streets of You
TTITLE10=DATA
EXTD=YEAR: 2004
EXTT0=
EXTT1=
EXTT2=
EXTT3=
EXTT4=
EXTT5=
EXTT6=
EXTT7=
EXTT8=
EXTT9=
EXTT10=
PLAYORDER=
